<mxfile host="65bd71144e">
    <diagram id="LJLFSZJTENhmira4SbCX" name="PÃ¡gina-1">
        <mxGraphModel dx="771" dy="656" grid="1" gridSize="10" guides="1" tooltips="1" connect="1" arrows="1" fold="1" page="1" pageScale="1" pageWidth="850" pageHeight="1100" math="0" shadow="0">
            <root>
                <mxCell id="0"/>
                <mxCell id="1" parent="0"/>
                <mxCell id="2" value="Zoo" style="swimlane;fontStyle=1;align=center;verticalAlign=top;childLayout=stackLayout;horizontal=1;startSize=26;horizontalStack=0;resizeParent=1;resizeParentMax=0;resizeLast=0;collapsible=1;marginBottom=0;spacing=2;fillColor=#1D1C1D;" vertex="1" parent="1">
                    <mxGeometry x="120" y="150" width="160" height="124" as="geometry">
                        <mxRectangle x="120" y="80" width="60" height="30" as="alternateBounds"/>
                    </mxGeometry>
                </mxCell>
                <mxCell id="3" value="id : int(PRIMARY KEY)" style="text;strokeColor=none;fillColor=#1D1B1D;align=left;verticalAlign=top;spacingLeft=4;spacingRight=4;overflow=hidden;rotatable=0;points=[[0,0.5],[1,0.5]];portConstraint=eastwest;" vertex="1" parent="2">
                    <mxGeometry y="26" width="160" height="30" as="geometry"/>
                </mxCell>
                <mxCell id="4" value="" style="line;strokeWidth=1;fillColor=none;align=left;verticalAlign=middle;spacingTop=-1;spacingLeft=3;spacingRight=3;rotatable=0;labelPosition=right;points=[];portConstraint=eastwest;strokeColor=inherit;" vertex="1" parent="2">
                    <mxGeometry y="56" width="160" height="8" as="geometry"/>
                </mxCell>
                <mxCell id="5" value="nombre : string" style="text;strokeColor=none;fillColor=#1D1B1C;align=left;verticalAlign=top;spacingLeft=4;spacingRight=4;overflow=hidden;rotatable=0;points=[[0,0.5],[1,0.5]];portConstraint=eastwest;container=0;" vertex="1" parent="2">
                    <mxGeometry y="64" width="160" height="30" as="geometry"/>
                </mxCell>
                <mxCell id="12" value="ubicacion : string" style="text;strokeColor=none;fillColor=#1D1B1C;align=left;verticalAlign=top;spacingLeft=4;spacingRight=4;overflow=hidden;rotatable=0;points=[[0,0.5],[1,0.5]];portConstraint=eastwest;container=0;" vertex="1" parent="2">
                    <mxGeometry y="94" width="160" height="30" as="geometry"/>
                </mxCell>
                <mxCell id="7" value="Animal" style="swimlane;fontStyle=1;align=center;verticalAlign=top;childLayout=stackLayout;horizontal=1;startSize=26;horizontalStack=0;resizeParent=1;resizeParentMax=0;resizeLast=0;collapsible=1;marginBottom=0;fillColor=#1D1C1D;" vertex="1" parent="1">
                    <mxGeometry x="360" y="150" width="160" height="154" as="geometry"/>
                </mxCell>
                <mxCell id="8" value="id : int(PRIMARY KEY)" style="text;strokeColor=none;fillColor=#1D1C1D;align=left;verticalAlign=top;spacingLeft=4;spacingRight=4;overflow=hidden;rotatable=0;points=[[0,0.5],[1,0.5]];portConstraint=eastwest;" vertex="1" parent="7">
                    <mxGeometry y="26" width="160" height="30" as="geometry"/>
                </mxCell>
                <mxCell id="9" value="" style="line;strokeWidth=1;fillColor=none;align=left;verticalAlign=middle;spacingTop=-1;spacingLeft=3;spacingRight=3;rotatable=0;labelPosition=right;points=[];portConstraint=eastwest;strokeColor=inherit;" vertex="1" parent="7">
                    <mxGeometry y="56" width="160" height="8" as="geometry"/>
                </mxCell>
                <mxCell id="10" value="nombre : string" style="text;strokeColor=none;fillColor=#1D1C1D;align=left;verticalAlign=top;spacingLeft=4;spacingRight=4;overflow=hidden;rotatable=0;points=[[0,0.5],[1,0.5]];portConstraint=eastwest;" vertex="1" parent="7">
                    <mxGeometry y="64" width="160" height="30" as="geometry"/>
                </mxCell>
                <mxCell id="16" value="especie : string" style="text;strokeColor=none;fillColor=#1D1C1D;align=left;verticalAlign=top;spacingLeft=4;spacingRight=4;overflow=hidden;rotatable=0;points=[[0,0.5],[1,0.5]];portConstraint=eastwest;flipH=1;flipV=1;" vertex="1" parent="7">
                    <mxGeometry y="94" width="160" height="30" as="geometry"/>
                </mxCell>
                <mxCell id="17" value="Zoo_ID : int (Foreing KEY)" style="text;strokeColor=none;fillColor=#1D1C1D;align=left;verticalAlign=top;spacingLeft=4;spacingRight=4;overflow=hidden;rotatable=0;points=[[0,0.5],[1,0.5]];portConstraint=eastwest;" vertex="1" parent="7">
                    <mxGeometry y="124" width="160" height="30" as="geometry"/>
                </mxCell>
                <mxCell id="18" style="edgeStyle=none;html=1;entryX=1;entryY=0.5;entryDx=0;entryDy=0;endArrow=ERone;endFill=0;startArrow=ERmany;startFill=0;fillColor=#eeeeee;strokeColor=#36393d;" edge="1" parent="1" target="3">
                    <mxGeometry relative="1" as="geometry">
                        <mxPoint x="320" y="280" as="targetPoint"/>
                        <mxPoint x="360" y="285" as="sourcePoint"/>
                        <Array as="points">
                            <mxPoint x="320" y="285"/>
                            <mxPoint x="320" y="190"/>
                            <mxPoint x="300" y="191"/>
                        </Array>
                    </mxGeometry>
                </mxCell>
            </root>
        </mxGraphModel>
    </diagram>
</mxfile>